<?xml version="1.0" encoding="utf-8"?>
<!-- Generator: Adobe Illustrator 18.0.0, SVG Export Plug-In . SVG Version: 6.00 Build 0)  -->
<!DOCTYPE svg PUBLIC "-//W3C//DTD SVG 1.1//EN" "http://www.w3.org/Graphics/SVG/1.1/DTD/svg11.dtd">
<svg version="1.1" id="Layer_1" xmlns="http://www.w3.org/2000/svg" xmlns:xlink="http://www.w3.org/1999/xlink" x="0px" y="0px"
	 viewBox="0 0 1190.6 841.9" enable-background="new 0 0 1190.6 841.9" xml:space="preserve">
<g>
	<path d="M862.3,217c-6.6-11.8-19.7-19.7-34.2-19.7h-75v52.6h67.1l120.9,184.2H746.6l-36.8,125c-2.6,3.9-2.6,6.6-22.4,6.6H503.2
		c-11.8,0-21-6.6-25-18.4L444,434.1H250.4l126.5-184.2h60.5v-52.6h-67.1c-14.5,0-27.6,7.9-34.2,19.7L174.3,452.5v389.4h841.9V452.5
		L862.3,217z M226.9,789.3V486.7h177.6l23.7,75c9.2,34.2,39.5,56.6,75,56.6h184.2c15.8,0,59.2,0,72.3-44.7l26.3-86.8h177.6v302.6
		H226.9z"/>
	<polygon points="745.2,307.8 708.4,271 621.6,357.8 621.6,0 569,0 569,352.6 483.5,259.1 444,293.3 594,459.1 	"/>
</g>
</svg>
